# Blender 3.6.0
# www.blender.org
mtllib Jewel_001.mtl
o Round
v -0.500000 0.409785 0.000000
v -0.500000 0.436785 0.000000
v -0.497592 0.416226 -0.049009
v -0.497592 0.416226 0.049009
v -0.497592 0.430619 0.049009
v -0.497592 0.430619 -0.049009
v -0.490393 0.418380 -0.097545
v -0.490393 0.428557 -0.097545
v -0.490393 0.428557 0.097545
v -0.490393 0.418380 0.097545
v -0.478470 0.416226 -0.145142
v -0.478470 0.430619 0.145142
v -0.478470 0.416226 0.145142
v -0.478470 0.430619 -0.145142
v -0.461940 0.436785 -0.191342
v -0.461940 0.409785 0.191342
v -0.461940 0.409785 -0.191342
v -0.461940 0.436785 0.191342
v -0.440961 0.416226 0.235698
v -0.440961 0.416226 -0.235698
v -0.440961 0.430619 -0.235698
v -0.440961 0.430619 0.235698
v -0.415735 0.428557 -0.277785
v -0.415735 0.428557 0.277785
v -0.415735 0.418380 0.277785
v -0.415735 0.418380 -0.277785
v -0.386505 0.430619 0.317197
v -0.386505 0.416226 0.317197
v -0.386505 0.416226 -0.317197
v -0.386505 0.430619 -0.317197
v -0.353553 0.409785 0.353553
v -0.353553 0.436785 0.353553
v -0.353553 0.436785 -0.353553
v -0.353553 0.409785 -0.353553
v -0.344025 0.543983 -0.142500
v -0.344025 0.543983 0.142500
v -0.317197 0.430619 0.386505
v -0.317197 0.416226 -0.386505
v -0.317197 0.416226 0.386505
v -0.317197 0.430619 -0.386505
v -0.285000 0.584550 0.000000
v -0.277785 0.428557 0.415735
v -0.277785 0.428557 -0.415735
v -0.277785 0.418380 -0.415735
v -0.277785 0.418380 0.415735
v -0.235698 0.416226 -0.440961
v -0.235698 0.430619 0.440961
v -0.235698 0.430619 -0.440961
v -0.235698 0.416226 0.440961
v -0.201525 0.584550 -0.201525
v -0.201525 0.584550 0.201525
v -0.191342 0.436785 0.461940
v -0.191342 0.436785 -0.461940
v -0.191342 0.409785 0.461940
v -0.191342 0.409785 -0.461940
v -0.145142 0.416226 0.478470
v -0.145142 0.416226 -0.478470
v -0.145142 0.430619 0.478470
v -0.145142 0.430619 -0.478470
v -0.142500 0.543983 0.344025
v -0.142500 0.543983 -0.344025
v -0.097545 0.428557 0.490393
v -0.097545 0.418380 -0.490393
v -0.097545 0.418380 0.490393
v -0.097545 0.428557 -0.490393
v -0.090000 0.056506 0.037279
v -0.090000 0.056506 -0.037279
v -0.049009 0.430619 0.497592
v -0.049009 0.430619 -0.497592
v -0.049009 0.416226 -0.497592
v -0.049009 0.416226 0.497592
v -0.037279 0.056506 -0.090000
v -0.037279 0.056506 0.090000
v 0.000000 0.436785 0.500000
v 0.000000 0.584550 -0.285000
v -0.000005 -0.021039 0.000002
v 0.000000 0.584550 0.285000
v 0.000000 0.436785 -0.500000
v 0.000000 0.409785 -0.500000
v 0.000000 0.409785 0.500000
v 0.037279 0.056506 0.090000
v 0.037279 0.056506 -0.090000
v 0.049009 0.430619 0.497592
v 0.049009 0.416226 0.497592
v 0.049009 0.416226 -0.497592
v 0.049009 0.430619 -0.497592
v 0.090000 0.056506 0.037279
v 0.090000 0.056506 -0.037279
v 0.097545 0.428557 0.490393
v 0.097545 0.428557 -0.490393
v 0.097545 0.418380 -0.490393
v 0.097545 0.418380 0.490393
v 0.142500 0.543983 -0.344025
v 0.142500 0.543983 0.344025
v 0.145142 0.416226 -0.478470
v 0.145142 0.430619 0.478470
v 0.145142 0.430619 -0.478470
v 0.145142 0.416226 0.478470
v 0.191342 0.409785 0.461940
v 0.191342 0.436785 -0.461940
v 0.191342 0.436785 0.461940
v 0.191342 0.409785 -0.461940
v 0.201525 0.584550 -0.201525
v 0.201525 0.584550 0.201525
v 0.235698 0.416226 -0.440961
v 0.235698 0.430619 -0.440961
v 0.235698 0.430619 0.440961
v 0.235698 0.416226 0.440961
v 0.277785 0.418380 -0.415735
v 0.277785 0.428557 0.415735
v 0.277785 0.428557 -0.415735
v 0.277785 0.418380 0.415735
v 0.285000 0.584550 0.000000
v 0.317197 0.430619 0.386505
v 0.317197 0.416226 0.386505
v 0.317197 0.416226 -0.386505
v 0.317197 0.430619 -0.386505
v 0.344025 0.543983 -0.142500
v 0.344025 0.543983 0.142500
v 0.353554 0.436785 -0.353553
v 0.353553 0.436785 0.353553
v 0.353554 0.409785 -0.353553
v 0.353553 0.409785 0.353553
v 0.386505 0.430619 -0.317197
v 0.386505 0.416226 -0.317197
v 0.386505 0.430619 0.317197
v 0.386505 0.416226 0.317197
v 0.415735 0.428557 -0.277785
v 0.415735 0.418380 0.277785
v 0.415735 0.418380 -0.277785
v 0.415735 0.428557 0.277785
v 0.440961 0.430619 0.235698
v 0.440961 0.416226 0.235698
v 0.440961 0.430619 -0.235698
v 0.440961 0.416226 -0.235698
v 0.461940 0.409785 0.191342
v 0.461940 0.436785 0.191342
v 0.461940 0.436785 -0.191342
v 0.461940 0.409785 -0.191342
v 0.478470 0.430619 -0.145142
v 0.478470 0.430619 0.145142
v 0.478470 0.416226 0.145142
v 0.478470 0.416226 -0.145142
v 0.490393 0.418380 0.097545
v 0.490393 0.428557 -0.097545
v 0.490393 0.418380 -0.097545
v 0.490393 0.428557 0.097545
v 0.497592 0.416226 -0.049009
v 0.497592 0.416226 0.049009
v 0.497592 0.430619 -0.049009
v 0.497592 0.430619 0.049009
v 0.500000 0.409785 0.000000
v 0.500000 0.436785 0.000000
vn 0.6528 -0.7576 -0.0000
vn -0.0000 -0.7576 -0.6527
vn -0.0000 -0.7576 0.6527
vn 0.4616 -0.7576 0.4616
vn -0.6528 -0.7576 -0.0000
vn 0.4616 -0.7576 -0.4616
vn -0.4616 -0.7576 -0.4616
vn -0.4616 -0.7576 0.4616
vn -0.1301 -0.7452 0.6540
vn 0.5544 -0.7452 -0.3704
vn -0.3704 -0.7452 -0.5544
vn 0.6540 -0.7452 0.1301
vn -0.1301 -0.7452 -0.6540
vn -0.3704 -0.7452 0.5544
vn 0.3704 -0.7452 -0.5544
vn 0.1301 -0.7452 -0.6540
vn -0.6540 -0.7452 0.1301
vn -0.6540 -0.7452 -0.1301
vn 0.6540 -0.7452 -0.1301
vn -0.5544 -0.7452 -0.3704
vn 0.5544 -0.7452 0.3704
vn 0.3704 -0.7452 0.5544
vn 0.1301 -0.7452 0.6540
vn -0.5544 -0.7452 0.3704
vn -0.9988 -0.0000 -0.0491
vn -0.6716 -0.0000 0.7410
vn -0.4276 -0.0000 -0.9040
vn -0.9040 -0.0000 0.4276
vn 0.9040 -0.0000 0.4276
vn 0.0491 -0.0000 -0.9988
vn 0.9988 -0.0000 -0.0491
vn 0.4276 -0.0000 0.9040
vn 0.3369 -0.0000 -0.9415
vn 0.3369 -0.0000 0.9415
vn 0.7410 -0.0000 -0.6716
vn -0.9040 -0.0000 -0.4276
vn 0.6716 -0.0000 -0.7410
vn 0.6716 -0.0000 0.7410
vn -0.9415 -0.0000 -0.3369
vn -0.0491 -0.0000 0.9988
vn 0.9415 -0.0000 0.3369
vn 0.9988 -0.0000 0.0491
vn -0.7410 -0.0000 0.6716
vn -0.9415 -0.0000 0.3369
vn -0.7410 -0.0000 -0.6716
vn 0.7410 -0.0000 0.6716
vn 0.0491 -0.0000 0.9988
vn -0.0491 -0.0000 -0.9988
vn 0.4276 -0.0000 -0.9040
vn 0.9040 -0.0000 -0.4276
vn -0.6716 -0.0000 -0.7410
vn -0.3369 -0.0000 -0.9415
vn -0.4276 -0.0000 0.9040
vn -0.9988 -0.0000 0.0491
vn -0.3369 -0.0000 0.9415
vn 0.9415 -0.0000 -0.3369
vn -0.2430 -0.0000 -0.9700
vn 0.5141 -0.0000 0.8577
vn -0.9700 -0.0000 0.2430
vn 0.9700 -0.0000 0.2430
vn -0.8032 -0.0000 0.5957
vn -0.8577 -0.0000 0.5141
vn -0.5957 -0.0000 0.8032
vn 0.2430 -0.0000 -0.9700
vn -0.5957 -0.0000 -0.8032
vn -0.9892 -0.0000 -0.1467
vn -0.2430 -0.0000 0.9700
vn 0.8577 -0.0000 -0.5141
vn 0.1467 -0.0000 -0.9892
vn 0.9700 -0.0000 -0.2430
vn -0.9700 -0.0000 -0.2430
vn -0.9892 -0.0000 0.1467
vn -0.1467 -0.0000 -0.9892
vn 0.2430 -0.0000 0.9700
vn 0.1467 -0.0000 0.9892
vn 0.5957 -0.0000 -0.8032
vn 0.8577 -0.0000 0.5141
vn -0.1467 -0.0000 0.9892
vn 0.9892 -0.0000 0.1467
vn 0.5141 -0.0000 -0.8577
vn -0.5141 -0.0000 0.8577
vn -0.8577 -0.0000 -0.5141
vn -0.5141 -0.0000 -0.8577
vn 0.5957 -0.0000 0.8032
vn 0.9892 -0.0000 -0.1467
vn -0.8032 -0.0000 -0.5957
vn 0.8032 -0.0000 0.5957
vn 0.8032 -0.0000 -0.5957
vn -0.1269 0.7595 -0.6380
vn 0.5408 0.7595 -0.3614
vn 0.3614 0.7595 -0.5408
vn -0.3614 0.7595 0.5408
vn 0.6380 0.7595 0.1269
vn -0.5408 0.7595 0.3614
vn 0.1269 0.7595 0.6380
vn -0.5408 0.7595 -0.3614
vn -0.3614 0.7595 -0.5408
vn 0.6380 0.7595 -0.1269
vn 0.1269 0.7595 -0.6380
vn -0.6380 0.7595 0.1269
vn -0.1269 0.7595 0.6380
vn -0.6380 0.7595 -0.1269
vn 0.5408 0.7595 0.3614
vn 0.3614 0.7595 0.5408
vn 0.5664 0.8241 -0.0000
vn -0.4005 0.8241 0.4005
vn -0.5664 0.8241 -0.0000
vn 0.4005 0.8241 0.4005
vn -0.0000 0.8241 0.5664
vn -0.4005 0.8241 -0.4005
vn -0.0000 0.8241 -0.5664
vn 0.4005 0.8241 -0.4005
vn 0.1334 0.9373 -0.3221
vn 0.3221 0.9373 -0.1334
vn 0.1334 0.9373 0.3221
vn -0.1334 0.9373 -0.3221
vn -0.3221 0.9373 0.1334
vn 0.3221 0.9373 0.1334
vn -0.3221 0.9373 -0.1334
vn -0.1334 0.9373 0.3221
vn -0.0000 1.0000 -0.0000
vn 0.6527 -0.7576 -0.0000
vn -0.0000 -0.7576 -0.6528
vn -0.0000 -0.7576 0.6528
vn 0.4616 -0.7576 0.4615
vn 0.4615 -0.7576 -0.4615
vn -0.1301 -0.7453 0.6540
vn 0.5544 -0.7452 -0.3705
vn -0.3705 -0.7452 -0.5544
vn -0.3704 -0.7453 -0.5544
vn 0.3704 -0.7453 -0.5544
vn -0.6540 -0.7453 -0.1301
vn -0.5544 -0.7452 -0.3705
vn 0.5544 -0.7453 0.3704
vn 0.3705 -0.7452 0.5544
vn -0.5544 -0.7452 0.3705
vn 0.3614 0.7596 -0.5408
vn -0.5408 0.7596 0.3614
vn -0.3614 0.7596 -0.5408
s 0
usemtl Tourmaline
f 87//1 88//1 152//1
f 72//2 82//2 76//2
f 81//3 73//3 76//3
f 81//4 87//4 123//4
f 66//5 67//5 76//5
f 88//6 82//6 122//6
f 67//7 72//7 76//7
f 73//8 66//8 76//8
f 80//9 64//9 54//9
f 88//10 125//10 135//10
f 34//11 44//11 55//11
f 87//12 149//12 142//12
f 57//13 70//13 72//13
f 73//14 49//14 39//14
f 105//15 116//15 82//15
f 82//16 85//16 95//16
f 13//17 4//17 66//17
f 1//18 7//18 17//18
f 88//19 143//19 148//19
f 67//20 20//20 29//20
f 133//21 127//21 87//21
f 81//22 115//22 108//22
f 81//23 98//23 84//23
f 31//24 25//24 16//24
f 3//25 2//25 6//25
f 32//26 39//26 37//26
f 53//27 46//27 48//27
f 18//28 19//28 22//28
f 133//29 137//29 132//29
f 85//30 78//30 86//30
f 153//31 148//31 150//31
f 101//32 108//32 107//32
f 100//33 95//33 97//33
f 98//34 101//34 96//34
f 125//35 120//35 124//35
f 20//36 15//36 21//36
f 120//37 116//37 117//37
f 115//38 121//38 114//38
f 15//39 11//39 14//39
f 71//40 74//40 68//40
f 137//41 142//41 141//41
f 153//42 149//42 152//42
f 28//43 32//43 27//43
f 13//44 18//44 12//44
f 33//45 29//45 30//45
f 121//46 127//46 126//46
f 74//47 84//47 83//47
f 78//48 70//48 69//48
f 105//49 100//49 106//49
f 138//50 135//50 134//50
f 38//51 33//51 40//51
f 57//52 53//52 59//52
f 49//53 52//53 47//53
f 2//54 4//54 5//54
f 52//55 56//55 58//55
f 143//56 138//56 140//56
f 63//57 59//57 65//57
f 107//58 112//58 110//58
f 10//59 12//59 9//59
f 141//60 144//60 147//60
f 25//61 27//61 24//61
f 22//62 25//62 24//62
f 37//63 45//63 42//63
f 97//64 91//64 90//64
f 44//65 40//65 43//65
f 7//66 6//66 8//66
f 58//67 64//67 62//67
f 134//68 130//68 128//68
f 91//69 86//69 90//69
f 146//70 140//70 145//70
f 14//71 7//71 8//71
f 5//72 10//72 9//72
f 69//73 63//73 65//73
f 92//74 96//74 89//74
f 83//75 92//75 89//75
f 117//76 109//76 111//76
f 129//77 132//77 131//77
f 64//78 68//78 62//78
f 144//79 151//79 147//79
f 109//80 106//80 111//80
f 45//81 47//81 42//81
f 26//82 21//82 23//82
f 48//83 44//83 43//83
f 112//84 114//84 110//84
f 150//85 146//85 145//85
f 30//86 26//86 23//86
f 126//87 129//87 131//87
f 130//88 124//88 128//88
f 69//89 59//89 61//89
f 134//90 124//90 118//90
f 117//91 106//91 93//91
f 60//92 37//92 47//92
f 141//93 151//93 119//93
f 36//94 22//94 27//94
f 94//95 83//95 96//95
f 35//96 30//96 21//96
f 61//97 48//97 40//97
f 118//98 150//98 140//98
f 97//99 86//99 93//99
f 5//100 12//100 36//100
f 60//101 58//101 68//101
f 35//102 14//102 6//102
f 126//103 132//103 119//103
f 107//104 114//104 94//104
f 153//105 113//105 119//105
f 51//106 32//106 60//106
f 41//107 2//107 36//107
f 104//108 121//108 119//108
f 77//109 74//109 94//109
f 50//110 33//110 35//110
f 75//111 78//111 61//111
f 103//112 120//112 93//112
f 75//113 103//113 93//113
f 113//114 118//114 103//114
f 77//115 94//115 104//115
f 75//116 61//116 50//116
f 41//117 36//117 51//117
f 113//118 104//118 119//118
f 41//119 50//119 35//119
f 77//120 51//120 60//120
f 103//121 50//121 51//121
f 87//122 76//122 88//122
f 72//123 79//123 82//123
f 81//124 80//124 73//124
f 81//125 76//125 87//125
f 66//5 1//5 67//5
f 88//126 76//126 82//126
f 67//7 34//7 72//7
f 73//8 31//8 66//8
f 54//9 73//9 80//9
f 80//127 71//127 64//127
f 64//9 56//9 54//9
f 135//10 139//10 88//10
f 88//10 122//10 125//10
f 125//128 130//128 135//128
f 55//11 72//11 34//11
f 34//129 38//129 44//129
f 44//130 46//130 55//130
f 142//12 136//12 87//12
f 87//12 152//12 149//12
f 149//12 144//12 142//12
f 72//13 55//13 57//13
f 57//13 63//13 70//13
f 70//13 79//13 72//13
f 39//14 31//14 73//14
f 73//14 54//14 49//14
f 49//14 45//14 39//14
f 82//15 102//15 105//15
f 105//131 109//131 116//131
f 116//15 122//15 82//15
f 95//16 102//16 82//16
f 82//16 79//16 85//16
f 85//16 91//16 95//16
f 66//17 16//17 13//17
f 13//17 10//17 4//17
f 4//17 1//17 66//17
f 17//18 67//18 1//18
f 1//18 3//18 7//18
f 7//132 11//132 17//132
f 148//19 152//19 88//19
f 88//19 139//19 143//19
f 143//19 146//19 148//19
f 29//20 34//20 67//20
f 67//20 17//20 20//20
f 20//133 26//133 29//133
f 87//21 136//21 133//21
f 133//134 129//134 127//134
f 127//21 123//21 87//21
f 108//22 99//22 81//22
f 81//22 123//22 115//22
f 115//135 112//135 108//135
f 84//23 80//23 81//23
f 81//23 99//23 98//23
f 98//23 92//23 84//23
f 16//24 66//24 31//24
f 31//136 28//136 25//136
f 25//24 19//24 16//24
f 3//25 1//25 2//25
f 32//26 31//26 39//26
f 53//27 55//27 46//27
f 18//28 16//28 19//28
f 133//29 136//29 137//29
f 85//30 79//30 78//30
f 153//31 152//31 148//31
f 101//32 99//32 108//32
f 100//33 102//33 95//33
f 98//34 99//34 101//34
f 125//35 122//35 120//35
f 20//36 17//36 15//36
f 120//37 122//37 116//37
f 115//38 123//38 121//38
f 15//39 17//39 11//39
f 71//40 80//40 74//40
f 137//41 136//41 142//41
f 153//42 151//42 149//42
f 28//43 31//43 32//43
f 13//44 16//44 18//44
f 33//45 34//45 29//45
f 121//46 123//46 127//46
f 74//47 80//47 84//47
f 78//48 79//48 70//48
f 105//49 102//49 100//49
f 138//50 139//50 135//50
f 38//51 34//51 33//51
f 57//52 55//52 53//52
f 49//53 54//53 52//53
f 2//54 1//54 4//54
f 52//55 54//55 56//55
f 143//56 139//56 138//56
f 63//57 57//57 59//57
f 107//58 108//58 112//58
f 10//59 13//59 12//59
f 141//60 142//60 144//60
f 25//61 28//61 27//61
f 22//62 19//62 25//62
f 37//63 39//63 45//63
f 97//64 95//64 91//64
f 44//65 38//65 40//65
f 7//66 3//66 6//66
f 58//67 56//67 64//67
f 134//68 135//68 130//68
f 91//69 85//69 86//69
f 146//70 143//70 140//70
f 14//71 11//71 7//71
f 5//72 4//72 10//72
f 69//73 70//73 63//73
f 92//74 98//74 96//74
f 83//75 84//75 92//75
f 117//76 116//76 109//76
f 129//77 133//77 132//77
f 64//78 71//78 68//78
f 144//79 149//79 151//79
f 109//80 105//80 106//80
f 45//81 49//81 47//81
f 26//82 20//82 21//82
f 48//83 46//83 44//83
f 112//84 115//84 114//84
f 150//85 148//85 146//85
f 30//86 29//86 26//86
f 126//87 127//87 129//87
f 130//88 125//88 124//88
f 61//89 78//89 69//89
f 69//89 65//89 59//89
f 59//89 53//89 61//89
f 118//90 138//90 134//90
f 134//90 128//90 124//90
f 124//90 120//90 118//90
f 93//91 120//91 117//91
f 117//137 111//137 106//137
f 106//91 100//91 93//91
f 47//92 52//92 60//92
f 60//92 32//92 37//92
f 37//92 42//92 47//92
f 119//93 137//93 141//93
f 141//93 147//93 151//93
f 151//93 153//93 119//93
f 27//94 32//94 36//94
f 36//94 18//94 22//94
f 22//138 24//138 27//138
f 96//95 101//95 94//95
f 94//95 74//95 83//95
f 83//95 89//95 96//95
f 21//96 15//96 35//96
f 35//96 33//96 30//96
f 30//96 23//96 21//96
f 40//97 33//97 61//97
f 61//97 53//97 48//97
f 48//139 43//139 40//139
f 140//98 138//98 118//98
f 118//98 153//98 150//98
f 150//98 145//98 140//98
f 93//99 100//99 97//99
f 97//99 90//99 86//99
f 86//99 78//99 93//99
f 36//100 2//100 5//100
f 5//100 9//100 12//100
f 12//100 18//100 36//100
f 68//101 74//101 60//101
f 60//101 52//101 58//101
f 58//101 62//101 68//101
f 6//102 2//102 35//102
f 35//102 15//102 14//102
f 14//102 8//102 6//102
f 119//103 121//103 126//103
f 126//103 131//103 132//103
f 132//103 137//103 119//103
f 94//104 101//104 107//104
f 107//104 110//104 114//104
f 114//104 121//104 94//104
f 153//105 118//105 113//105
f 51//106 36//106 32//106
f 41//107 35//107 2//107
f 104//108 94//108 121//108
f 77//109 60//109 74//109
f 50//110 61//110 33//110
f 75//111 93//111 78//111
f 103//112 118//112 120//112
f 51//121 77//121 104//121
f 104//121 113//121 103//121
f 103//121 75//121 50//121
f 50//121 41//121 51//121
f 51//121 104//121 103//121
